<?xml version="1.0" encoding="utf-8" standalone="no"?>
<!DOCTYPE svg PUBLIC "-//W3C//DTD SVG 1.1//EN"
  "http://www.w3.org/Graphics/SVG/1.1/DTD/svg11.dtd">
<!-- Created with matplotlib (https://matplotlib.org/) -->
<svg height="226.8pt" version="1.1" viewBox="0 0 340.56 226.8" width="340.56pt" xmlns="http://www.w3.org/2000/svg" xmlns:xlink="http://www.w3.org/1999/xlink">
 <defs>
  <style type="text/css">
*{stroke-linecap:butt;stroke-linejoin:round;}
  </style>
 </defs>
 <g id="figure_1">
  <g id="patch_1">
   <path d="M 0 226.8 
L 340.56 226.8 
L 340.56 0 
L 0 0 
z
" style="fill:#ffffff;"/>
  </g>
  <g id="axes_1">
   <g id="patch_2">
    <path d="M 51.795938 195.450625 
L 325.30625 195.450625 
L 325.30625 10.8 
L 51.795938 10.8 
z
" style="fill:#ffffff;"/>
   </g>
   <g id="PolyCollection_1">
    <defs>
     <path d="M 57.266144 -129.310175 
L 57.266144 -137.484747 
L 60.001247 -141.177386 
L 62.73635 -141.29033 
L 65.471453 -142.856042 
L 68.206556 -140.985415 
L 70.941659 -139.788085 
L 73.676763 -139.733352 
L 76.411866 -139.422443 
L 79.146969 -142.003151 
L 81.882072 -142.836597 
L 84.617175 -141.383435 
L 87.352278 -141.144491 
L 90.087381 -139.34494 
L 92.822484 -141.005622 
L 95.557587 -143.096892 
L 98.292691 -142.619184 
L 101.027794 -141.542175 
L 103.762897 -142.501051 
L 106.498 -140.293566 
L 109.233103 -139.933146 
L 111.968206 -139.141403 
L 114.703309 -137.668124 
L 117.438412 -136.7655 
L 120.173516 -136.412472 
L 122.908619 -135.598137 
L 125.643722 -137.458705 
L 128.378825 -138.758403 
L 131.113928 -139.022326 
L 133.849031 -139.644226 
L 136.584134 -142.052229 
L 139.319237 -142.787382 
L 142.054341 -143.605191 
L 144.789444 -142.199253 
L 147.524547 -140.274943 
L 150.25965 -138.746692 
L 152.994753 -137.648464 
L 155.729856 -137.037924 
L 158.464959 -137.267408 
L 161.200062 -137.897213 
L 163.935166 -138.09709 
L 166.670269 -138.607872 
L 169.405372 -136.605337 
L 172.140475 -137.644098 
L 174.875578 -141.498805 
L 177.610681 -141.620545 
L 180.345784 -142.415197 
L 183.080887 -141.43131 
L 185.815991 -142.562491 
L 188.551094 -141.195367 
L 191.286197 -141.396705 
L 194.0213 -141.217826 
L 196.756403 -139.302947 
L 199.491506 -139.836131 
L 202.226609 -140.98873 
L 204.961712 -139.456362 
L 207.696816 -137.80093 
L 210.431919 -138.281114 
L 213.167022 -142.586863 
L 215.902125 -141.635943 
L 218.637228 -140.145978 
L 221.372331 -138.341468 
L 224.107434 -137.878043 
L 226.842537 -140.144691 
L 229.577641 -141.027504 
L 232.312744 -142.280134 
L 235.047847 -142.271177 
L 237.78295 -144.12741 
L 240.518053 -143.338151 
L 243.253156 -142.280026 
L 245.988259 -142.852106 
L 248.723362 -143.901124 
L 251.458466 -143.954189 
L 254.193569 -143.481486 
L 256.928672 -144.420182 
L 259.663775 -143.737556 
L 262.398878 -142.23438 
L 265.133981 -144.130129 
L 267.869084 -142.977498 
L 270.604187 -142.673945 
L 273.339291 -143.46766 
L 276.074394 -142.444165 
L 278.809497 -141.910276 
L 281.5446 -140.55789 
L 284.279703 -140.840065 
L 287.014806 -142.272775 
L 289.749909 -137.432384 
L 292.485012 -136.382372 
L 295.220116 -137.074102 
L 297.955219 -135.92004 
L 300.690322 -135.09665 
L 303.425425 -135.631397 
L 306.160528 -135.583228 
L 308.895631 -136.66366 
L 311.630734 -134.370131 
L 314.365837 -133.364386 
L 317.100941 -133.030389 
L 319.836044 -134.313099 
L 322.571147 -132.408452 
L 325.30625 -131.829862 
L 325.30625 -125.838501 
L 325.30625 -125.838501 
L 322.571147 -126.080574 
L 319.836044 -126.064693 
L 317.100941 -127.162213 
L 314.365837 -126.962267 
L 311.630734 -127.202133 
L 308.895631 -128.038451 
L 306.160528 -127.132895 
L 303.425425 -127.906676 
L 300.690322 -128.423857 
L 297.955219 -126.411491 
L 295.220116 -127.708791 
L 292.485012 -126.675824 
L 289.749909 -127.551239 
L 287.014806 -126.39344 
L 284.279703 -128.853553 
L 281.5446 -128.21598 
L 278.809497 -129.431463 
L 276.074394 -130.844308 
L 273.339291 -133.874852 
L 270.604187 -131.963294 
L 267.869084 -134.314214 
L 265.133981 -130.903645 
L 262.398878 -130.691643 
L 259.663775 -131.694887 
L 256.928672 -131.784187 
L 254.193569 -130.48218 
L 251.458466 -131.864108 
L 248.723362 -132.011824 
L 245.988259 -132.603855 
L 243.253156 -133.071692 
L 240.518053 -131.8101 
L 237.78295 -131.861133 
L 235.047847 -129.107881 
L 232.312744 -130.200317 
L 229.577641 -129.113616 
L 226.842537 -128.037399 
L 224.107434 -125.089445 
L 221.372331 -121.862121 
L 218.637228 -124.185063 
L 215.902125 -121.405342 
L 213.167022 -120.526324 
L 210.431919 -126.213532 
L 207.696816 -127.585167 
L 204.961712 -128.912765 
L 202.226609 -129.324653 
L 199.491506 -128.393752 
L 196.756403 -129.219811 
L 194.0213 -128.506462 
L 191.286197 -129.241959 
L 188.551094 -131.105186 
L 185.815991 -127.32134 
L 183.080887 -128.909788 
L 180.345784 -128.165483 
L 177.610681 -129.934115 
L 174.875578 -131.157871 
L 172.140475 -126.767439 
L 169.405372 -127.274628 
L 166.670269 -126.688903 
L 163.935166 -126.707167 
L 161.200062 -127.437584 
L 158.464959 -125.149371 
L 155.729856 -122.028132 
L 152.994753 -120.097777 
L 150.25965 -120.848352 
L 147.524547 -122.256633 
L 144.789444 -123.779963 
L 142.054341 -125.400068 
L 139.319237 -128.117201 
L 136.584134 -129.582942 
L 133.849031 -129.70239 
L 131.113928 -129.357082 
L 128.378825 -129.807712 
L 125.643722 -126.709888 
L 122.908619 -126.563532 
L 120.173516 -127.338478 
L 117.438412 -128.264312 
L 114.703309 -128.935699 
L 111.968206 -130.712901 
L 109.233103 -130.932765 
L 106.498 -131.043189 
L 103.762897 -132.177022 
L 101.027794 -135.299073 
L 98.292691 -131.954514 
L 95.557587 -132.007518 
L 92.822484 -131.719868 
L 90.087381 -129.794908 
L 87.352278 -129.221117 
L 84.617175 -129.062755 
L 81.882072 -129.113899 
L 79.146969 -129.751731 
L 76.411866 -130.805294 
L 73.676763 -130.961337 
L 70.941659 -130.821845 
L 68.206556 -131.786531 
L 65.471453 -131.158855 
L 62.73635 -130.992476 
L 60.001247 -130.542454 
L 57.266144 -129.310175 
z
" id="m6a84d62a1c" style="stroke:#ff0000;stroke-opacity:0.5;"/>
    </defs>
    <g clip-path="url(#p88bfb76db0)">
     <use style="fill:#ff0000;fill-opacity:0.5;stroke:#ff0000;stroke-opacity:0.5;" x="0" xlink:href="#m6a84d62a1c" y="226.8"/>
    </g>
   </g>
   <g id="PolyCollection_2">
    <defs>
     <path d="M 57.266144 -133.576429 
L 57.266144 -138.575267 
L 60.001247 -138.392213 
L 62.73635 -137.128053 
L 65.471453 -137.142406 
L 68.206556 -135.894362 
L 70.941659 -136.95759 
L 73.676763 -137.040555 
L 76.411866 -137.806824 
L 79.146969 -137.395636 
L 81.882072 -136.90455 
L 84.617175 -135.917928 
L 87.352278 -135.952645 
L 90.087381 -135.922917 
L 92.822484 -135.352271 
L 95.557587 -135.952576 
L 98.292691 -136.530389 
L 101.027794 -137.434487 
L 103.762897 -138.556286 
L 106.498 -138.619387 
L 109.233103 -137.737724 
L 111.968206 -137.649335 
L 114.703309 -136.947627 
L 117.438412 -135.508832 
L 120.173516 -135.146032 
L 122.908619 -135.136321 
L 125.643722 -135.169085 
L 128.378825 -135.54613 
L 131.113928 -135.855924 
L 133.849031 -135.681553 
L 136.584134 -135.729537 
L 139.319237 -135.726616 
L 142.054341 -135.340735 
L 144.789444 -135.039544 
L 147.524547 -133.725132 
L 150.25965 -133.401659 
L 152.994753 -133.927868 
L 155.729856 -134.332352 
L 158.464959 -135.89672 
L 161.200062 -139.533865 
L 163.935166 -138.960788 
L 166.670269 -135.130538 
L 169.405372 -136.433123 
L 172.140475 -136.742853 
L 174.875578 -138.972441 
L 177.610681 -139.677648 
L 180.345784 -138.984354 
L 183.080887 -138.962737 
L 185.815991 -138.058624 
L 188.551094 -137.212331 
L 191.286197 -137.279372 
L 194.0213 -135.803899 
L 196.756403 -135.414225 
L 199.491506 -136.618855 
L 202.226609 -138.538985 
L 204.961712 -138.817088 
L 207.696816 -138.498319 
L 210.431919 -138.575389 
L 213.167022 -139.535225 
L 215.902125 -139.261918 
L 218.637228 -139.689906 
L 221.372331 -138.703343 
L 224.107434 -140.633531 
L 226.842537 -140.168589 
L 229.577641 -139.048911 
L 232.312744 -138.080023 
L 235.047847 -137.704591 
L 237.78295 -137.603751 
L 240.518053 -136.498031 
L 243.253156 -136.512983 
L 245.988259 -136.53838 
L 248.723362 -137.301956 
L 251.458466 -137.912901 
L 254.193569 -137.909515 
L 256.928672 -138.615162 
L 259.663775 -138.07389 
L 262.398878 -137.830451 
L 265.133981 -136.364754 
L 267.869084 -135.225504 
L 270.604187 -135.686263 
L 273.339291 -135.804507 
L 276.074394 -136.412939 
L 278.809497 -136.743151 
L 281.5446 -137.198665 
L 284.279703 -136.941407 
L 287.014806 -136.921317 
L 289.749909 -136.442035 
L 292.485012 -136.179571 
L 295.220116 -136.210059 
L 297.955219 -136.257995 
L 300.690322 -135.812302 
L 303.425425 -135.498338 
L 306.160528 -135.985195 
L 308.895631 -135.657966 
L 311.630734 -136.427217 
L 314.365837 -136.391835 
L 317.100941 -137.693154 
L 319.836044 -137.265414 
L 322.571147 -138.321625 
L 325.30625 -138.066529 
L 325.30625 -133.142295 
L 325.30625 -133.142295 
L 322.571147 -132.864384 
L 319.836044 -132.3968 
L 317.100941 -132.017504 
L 314.365837 -131.873624 
L 311.630734 -131.928002 
L 308.895631 -132.64548 
L 306.160528 -132.247659 
L 303.425425 -132.706925 
L 300.690322 -133.329021 
L 297.955219 -133.13908 
L 295.220116 -133.328923 
L 292.485012 -133.042902 
L 289.749909 -132.577646 
L 287.014806 -133.330646 
L 284.279703 -133.802205 
L 281.5446 -134.095584 
L 278.809497 -133.667566 
L 276.074394 -132.477628 
L 273.339291 -131.076035 
L 270.604187 -131.390315 
L 267.869084 -131.275712 
L 265.133981 -132.087513 
L 262.398878 -134.257755 
L 259.663775 -134.123092 
L 256.928672 -133.408534 
L 254.193569 -132.505174 
L 251.458466 -130.996462 
L 248.723362 -131.139622 
L 245.988259 -131.718613 
L 243.253156 -132.415954 
L 240.518053 -133.231085 
L 237.78295 -133.925623 
L 235.047847 -134.439047 
L 232.312744 -134.387397 
L 229.577641 -134.830316 
L 226.842537 -134.49793 
L 224.107434 -135.261827 
L 221.372331 -132.935504 
L 218.637228 -135.000738 
L 215.902125 -134.276855 
L 213.167022 -133.039582 
L 210.431919 -133.701394 
L 207.696816 -132.605508 
L 204.961712 -133.030722 
L 202.226609 -133.753984 
L 199.491506 -133.208069 
L 196.756403 -132.805529 
L 194.0213 -131.304362 
L 191.286197 -130.401516 
L 188.551094 -131.288078 
L 185.815991 -132.808758 
L 183.080887 -132.43864 
L 180.345784 -132.827884 
L 177.610681 -132.142829 
L 174.875578 -131.3206 
L 172.140475 -130.653899 
L 169.405372 -130.401907 
L 166.670269 -129.628853 
L 163.935166 -130.171574 
L 161.200062 -132.625927 
L 158.464959 -132.603827 
L 155.729856 -130.220624 
L 152.994753 -130.990746 
L 150.25965 -129.779111 
L 147.524547 -130.713795 
L 144.789444 -131.676362 
L 142.054341 -132.684435 
L 139.319237 -132.894249 
L 136.584134 -132.882548 
L 133.849031 -133.040345 
L 131.113928 -132.910344 
L 128.378825 -132.863597 
L 125.643722 -132.540837 
L 122.908619 -131.787007 
L 120.173516 -132.101391 
L 117.438412 -132.81822 
L 114.703309 -133.59839 
L 111.968206 -133.591328 
L 109.233103 -133.413989 
L 106.498 -132.797768 
L 103.762897 -132.93588 
L 101.027794 -132.887138 
L 98.292691 -133.240526 
L 95.557587 -133.004149 
L 92.822484 -132.806758 
L 90.087381 -132.426348 
L 87.352278 -132.569366 
L 84.617175 -133.103014 
L 81.882072 -133.253481 
L 79.146969 -133.712786 
L 76.411866 -132.610689 
L 73.676763 -132.272241 
L 70.941659 -132.289699 
L 68.206556 -132.342095 
L 65.471453 -133.167702 
L 62.73635 -133.432309 
L 60.001247 -134.438783 
L 57.266144 -133.576429 
z
" id="ma0f9869aa8" style="stroke:#0000ff;stroke-opacity:0.5;"/>
    </defs>
    <g clip-path="url(#p88bfb76db0)">
     <use style="fill:#0000ff;fill-opacity:0.5;stroke:#0000ff;stroke-opacity:0.5;" x="0" xlink:href="#ma0f9869aa8" y="226.8"/>
    </g>
   </g>
   <g id="matplotlib.axis_1">
    <g id="xtick_1">
     <g id="line2d_1">
      <defs>
       <path d="M 0 0 
L 0 3.5 
" id="m0fc35961fe" style="stroke:#000000;stroke-width:0.8;"/>
      </defs>
      <g>
       <use style="stroke:#000000;stroke-width:0.8;" x="51.795938" xlink:href="#m0fc35961fe" y="195.450625"/>
      </g>
     </g>
     <g id="text_1">
      <!-- 0 -->
      <defs>
       <path d="M 31.78125 66.40625 
Q 24.171875 66.40625 20.328125 58.90625 
Q 16.5 51.421875 16.5 36.375 
Q 16.5 21.390625 20.328125 13.890625 
Q 24.171875 6.390625 31.78125 6.390625 
Q 39.453125 6.390625 43.28125 13.890625 
Q 47.125 21.390625 47.125 36.375 
Q 47.125 51.421875 43.28125 58.90625 
Q 39.453125 66.40625 31.78125 66.40625 
z
M 31.78125 74.21875 
Q 44.046875 74.21875 50.515625 64.515625 
Q 56.984375 54.828125 56.984375 36.375 
Q 56.984375 17.96875 50.515625 8.265625 
Q 44.046875 -1.421875 31.78125 -1.421875 
Q 19.53125 -1.421875 13.0625 8.265625 
Q 6.59375 17.96875 6.59375 36.375 
Q 6.59375 54.828125 13.0625 64.515625 
Q 19.53125 74.21875 31.78125 74.21875 
z
" id="DejaVuSans-48"/>
      </defs>
      <g transform="translate(47.342188 213.088437)scale(0.14 -0.14)">
       <use xlink:href="#DejaVuSans-48"/>
      </g>
     </g>
    </g>
    <g id="xtick_2">
     <g id="line2d_2">
      <g>
       <use style="stroke:#000000;stroke-width:0.8;" x="106.498" xlink:href="#m0fc35961fe" y="195.450625"/>
      </g>
     </g>
     <g id="text_2">
      <!-- 1 -->
      <defs>
       <path d="M 12.40625 8.296875 
L 28.515625 8.296875 
L 28.515625 63.921875 
L 10.984375 60.40625 
L 10.984375 69.390625 
L 28.421875 72.90625 
L 38.28125 72.90625 
L 38.28125 8.296875 
L 54.390625 8.296875 
L 54.390625 0 
L 12.40625 0 
z
" id="DejaVuSans-49"/>
      </defs>
      <g transform="translate(102.04425 213.088437)scale(0.14 -0.14)">
       <use xlink:href="#DejaVuSans-49"/>
      </g>
     </g>
    </g>
    <g id="xtick_3">
     <g id="line2d_3">
      <g>
       <use style="stroke:#000000;stroke-width:0.8;" x="161.200063" xlink:href="#m0fc35961fe" y="195.450625"/>
      </g>
     </g>
     <g id="text_3">
      <!-- 2 -->
      <defs>
       <path d="M 19.1875 8.296875 
L 53.609375 8.296875 
L 53.609375 0 
L 7.328125 0 
L 7.328125 8.296875 
Q 12.9375 14.109375 22.625 23.890625 
Q 32.328125 33.6875 34.8125 36.53125 
Q 39.546875 41.84375 41.421875 45.53125 
Q 43.3125 49.21875 43.3125 52.78125 
Q 43.3125 58.59375 39.234375 62.25 
Q 35.15625 65.921875 28.609375 65.921875 
Q 23.96875 65.921875 18.8125 64.3125 
Q 13.671875 62.703125 7.8125 59.421875 
L 7.8125 69.390625 
Q 13.765625 71.78125 18.9375 73 
Q 24.125 74.21875 28.421875 74.21875 
Q 39.75 74.21875 46.484375 68.546875 
Q 53.21875 62.890625 53.21875 53.421875 
Q 53.21875 48.921875 51.53125 44.890625 
Q 49.859375 40.875 45.40625 35.40625 
Q 44.1875 33.984375 37.640625 27.21875 
Q 31.109375 20.453125 19.1875 8.296875 
z
" id="DejaVuSans-50"/>
      </defs>
      <g transform="translate(156.746313 213.088437)scale(0.14 -0.14)">
       <use xlink:href="#DejaVuSans-50"/>
      </g>
     </g>
    </g>
    <g id="xtick_4">
     <g id="line2d_4">
      <g>
       <use style="stroke:#000000;stroke-width:0.8;" x="215.902125" xlink:href="#m0fc35961fe" y="195.450625"/>
      </g>
     </g>
     <g id="text_4">
      <!-- 3 -->
      <defs>
       <path d="M 40.578125 39.3125 
Q 47.65625 37.796875 51.625 33 
Q 55.609375 28.21875 55.609375 21.1875 
Q 55.609375 10.40625 48.1875 4.484375 
Q 40.765625 -1.421875 27.09375 -1.421875 
Q 22.515625 -1.421875 17.65625 -0.515625 
Q 12.796875 0.390625 7.625 2.203125 
L 7.625 11.71875 
Q 11.71875 9.328125 16.59375 8.109375 
Q 21.484375 6.890625 26.8125 6.890625 
Q 36.078125 6.890625 40.9375 10.546875 
Q 45.796875 14.203125 45.796875 21.1875 
Q 45.796875 27.640625 41.28125 31.265625 
Q 36.765625 34.90625 28.71875 34.90625 
L 20.21875 34.90625 
L 20.21875 43.015625 
L 29.109375 43.015625 
Q 36.375 43.015625 40.234375 45.921875 
Q 44.09375 48.828125 44.09375 54.296875 
Q 44.09375 59.90625 40.109375 62.90625 
Q 36.140625 65.921875 28.71875 65.921875 
Q 24.65625 65.921875 20.015625 65.03125 
Q 15.375 64.15625 9.8125 62.3125 
L 9.8125 71.09375 
Q 15.4375 72.65625 20.34375 73.4375 
Q 25.25 74.21875 29.59375 74.21875 
Q 40.828125 74.21875 47.359375 69.109375 
Q 53.90625 64.015625 53.90625 55.328125 
Q 53.90625 49.265625 50.4375 45.09375 
Q 46.96875 40.921875 40.578125 39.3125 
z
" id="DejaVuSans-51"/>
      </defs>
      <g transform="translate(211.448375 213.088437)scale(0.14 -0.14)">
       <use xlink:href="#DejaVuSans-51"/>
      </g>
     </g>
    </g>
    <g id="xtick_5">
     <g id="line2d_5">
      <g>
       <use style="stroke:#000000;stroke-width:0.8;" x="270.604188" xlink:href="#m0fc35961fe" y="195.450625"/>
      </g>
     </g>
     <g id="text_5">
      <!-- 4 -->
      <defs>
       <path d="M 37.796875 64.3125 
L 12.890625 25.390625 
L 37.796875 25.390625 
z
M 35.203125 72.90625 
L 47.609375 72.90625 
L 47.609375 25.390625 
L 58.015625 25.390625 
L 58.015625 17.1875 
L 47.609375 17.1875 
L 47.609375 0 
L 37.796875 0 
L 37.796875 17.1875 
L 4.890625 17.1875 
L 4.890625 26.703125 
z
" id="DejaVuSans-52"/>
      </defs>
      <g transform="translate(266.150438 213.088437)scale(0.14 -0.14)">
       <use xlink:href="#DejaVuSans-52"/>
      </g>
     </g>
    </g>
    <g id="xtick_6">
     <g id="line2d_6">
      <g>
       <use style="stroke:#000000;stroke-width:0.8;" x="325.30625" xlink:href="#m0fc35961fe" y="195.450625"/>
      </g>
     </g>
     <g id="text_6">
      <!-- 5 -->
      <defs>
       <path d="M 10.796875 72.90625 
L 49.515625 72.90625 
L 49.515625 64.59375 
L 19.828125 64.59375 
L 19.828125 46.734375 
Q 21.96875 47.46875 24.109375 47.828125 
Q 26.265625 48.1875 28.421875 48.1875 
Q 40.625 48.1875 47.75 41.5 
Q 54.890625 34.8125 54.890625 23.390625 
Q 54.890625 11.625 47.5625 5.09375 
Q 40.234375 -1.421875 26.90625 -1.421875 
Q 22.3125 -1.421875 17.546875 -0.640625 
Q 12.796875 0.140625 7.71875 1.703125 
L 7.71875 11.625 
Q 12.109375 9.234375 16.796875 8.0625 
Q 21.484375 6.890625 26.703125 6.890625 
Q 35.15625 6.890625 40.078125 11.328125 
Q 45.015625 15.765625 45.015625 23.390625 
Q 45.015625 31 40.078125 35.4375 
Q 35.15625 39.890625 26.703125 39.890625 
Q 22.75 39.890625 18.8125 39.015625 
Q 14.890625 38.140625 10.796875 36.28125 
z
" id="DejaVuSans-53"/>
      </defs>
      <g transform="translate(320.8525 213.088437)scale(0.14 -0.14)">
       <use xlink:href="#DejaVuSans-53"/>
      </g>
     </g>
    </g>
   </g>
   <g id="matplotlib.axis_2">
    <g id="ytick_1">
     <g id="line2d_7">
      <defs>
       <path d="M 0 0 
L -3.5 0 
" id="m9c13a46f9b" style="stroke:#000000;stroke-width:0.8;"/>
      </defs>
      <g>
       <use style="stroke:#000000;stroke-width:0.8;" x="51.795938" xlink:href="#m9c13a46f9b" y="174.749882"/>
      </g>
     </g>
     <g id="text_7">
      <!-- −1.0 -->
      <defs>
       <path d="M 10.59375 35.5 
L 73.1875 35.5 
L 73.1875 27.203125 
L 10.59375 27.203125 
z
" id="DejaVuSans-8722"/>
       <path d="M 10.6875 12.40625 
L 21 12.40625 
L 21 0 
L 10.6875 0 
z
" id="DejaVuSans-46"/>
      </defs>
      <g transform="translate(10.8 180.068789)scale(0.14 -0.14)">
       <use xlink:href="#DejaVuSans-8722"/>
       <use x="83.789062" xlink:href="#DejaVuSans-49"/>
       <use x="147.412109" xlink:href="#DejaVuSans-46"/>
       <use x="179.199219" xlink:href="#DejaVuSans-48"/>
      </g>
     </g>
    </g>
    <g id="ytick_2">
     <g id="line2d_8">
      <g>
       <use style="stroke:#000000;stroke-width:0.8;" x="51.795938" xlink:href="#m9c13a46f9b" y="133.348397"/>
      </g>
     </g>
     <g id="text_8">
      <!-- −0.5 -->
      <g transform="translate(10.8 138.667303)scale(0.14 -0.14)">
       <use xlink:href="#DejaVuSans-8722"/>
       <use x="83.789062" xlink:href="#DejaVuSans-48"/>
       <use x="147.412109" xlink:href="#DejaVuSans-46"/>
       <use x="179.199219" xlink:href="#DejaVuSans-53"/>
      </g>
     </g>
    </g>
    <g id="ytick_3">
     <g id="line2d_9">
      <g>
       <use style="stroke:#000000;stroke-width:0.8;" x="51.795938" xlink:href="#m9c13a46f9b" y="91.946911"/>
      </g>
     </g>
     <g id="text_9">
      <!-- 0.0 -->
      <g transform="translate(22.531562 97.265818)scale(0.14 -0.14)">
       <use xlink:href="#DejaVuSans-48"/>
       <use x="63.623047" xlink:href="#DejaVuSans-46"/>
       <use x="95.410156" xlink:href="#DejaVuSans-48"/>
      </g>
     </g>
    </g>
    <g id="ytick_4">
     <g id="line2d_10">
      <g>
       <use style="stroke:#000000;stroke-width:0.8;" x="51.795938" xlink:href="#m9c13a46f9b" y="50.545426"/>
      </g>
     </g>
     <g id="text_10">
      <!-- 0.5 -->
      <g transform="translate(22.531562 55.864332)scale(0.14 -0.14)">
       <use xlink:href="#DejaVuSans-48"/>
       <use x="63.623047" xlink:href="#DejaVuSans-46"/>
       <use x="95.410156" xlink:href="#DejaVuSans-53"/>
      </g>
     </g>
    </g>
   </g>
   <g id="line2d_11">
    <path clip-path="url(#p88bfb76db0)" d="M 57.266144 103.207794 
L 60.001247 104.228233 
L 62.73635 105.578386 
L 65.471453 107.028497 
L 68.206556 108.492232 
L 70.941659 109.922879 
L 73.676763 111.287306 
L 76.411866 112.574627 
L 79.146969 113.782855 
L 81.882072 114.919775 
L 84.617175 116.003361 
L 87.352278 117.0527 
L 90.087381 118.092221 
L 92.822484 119.145563 
L 95.557587 120.234526 
L 98.292691 121.380445 
L 101.027794 122.602061 
L 103.762897 123.917014 
L 106.498 125.329264 
L 109.233103 126.848746 
L 111.968206 128.484634 
L 114.703309 130.236347 
L 117.438412 132.105275 
L 120.173516 134.090686 
L 122.908619 136.196329 
L 125.643722 138.411696 
L 128.378825 140.729065 
L 131.113928 143.126825 
L 133.849031 145.564956 
L 136.584134 147.983682 
L 139.319237 150.268079 
L 142.054341 152.280586 
L 144.789444 153.803675 
L 147.524547 154.5832 
L 150.25965 154.310423 
L 152.994753 152.668872 
L 155.729856 149.378788 
L 158.464959 144.285953 
L 161.200062 137.408286 
L 163.935166 128.981629 
L 166.670269 119.447556 
L 169.405372 109.372799 
L 172.140475 99.349145 
L 174.875578 89.877712 
L 177.610681 81.32078 
L 180.345784 73.863634 
L 183.080887 67.56155 
L 185.815991 62.364243 
L 188.551094 58.157105 
L 191.286197 54.797513 
L 194.0213 52.141928 
L 196.756403 50.044193 
L 199.491506 48.403892 
L 202.226609 47.11386 
L 204.961712 46.116693 
L 207.696816 45.345703 
L 210.431919 44.777928 
L 213.167022 44.398039 
L 215.902125 44.199362 
L 218.637228 44.184839 
L 221.372331 44.350884 
L 224.107434 44.699718 
L 226.842537 45.232464 
L 229.577641 45.923497 
L 232.312744 46.763044 
L 235.047847 47.730717 
L 237.78295 48.791373 
L 240.518053 49.93327 
L 243.253156 51.116523 
L 245.988259 52.328112 
L 248.723362 53.542225 
L 251.458466 54.739771 
L 254.193569 55.912326 
L 256.928672 57.048357 
L 259.663775 58.138282 
L 262.398878 59.180711 
L 265.133981 60.177287 
L 267.869084 61.12294 
L 270.604187 62.02508 
L 273.339291 62.883355 
L 276.074394 63.701557 
L 278.809497 64.486194 
L 281.5446 65.234811 
L 284.279703 65.956653 
L 287.014806 66.650877 
L 289.749909 67.319159 
L 292.485012 67.963754 
L 295.220116 68.584966 
L 297.955219 69.185355 
L 300.690322 69.766591 
L 303.425425 70.327293 
L 306.160528 70.866754 
L 308.895631 71.390474 
L 311.630734 71.897125 
L 314.365837 72.380027 
L 317.100941 72.853201 
L 319.836044 73.308934 
L 322.571147 73.749826 
L 325.30625 74.176057 
" style="fill:none;stroke:#808080;stroke-dasharray:5.55,2.4;stroke-dashoffset:0;stroke-width:1.5;"/>
   </g>
   <g id="line2d_12">
    <path clip-path="url(#p88bfb76db0)" d="M 161.200063 187.170328 
L 161.752609 187.170328 
L 162.305155 187.170328 
L 162.857701 187.170328 
L 163.410247 187.170328 
L 163.962793 187.170328 
L 164.515339 187.170328 
L 165.067885 187.170328 
L 165.620431 187.170328 
L 166.172977 187.170328 
L 166.725523 187.170328 
L 167.278069 187.170328 
L 167.830616 187.170328 
L 168.383162 187.170328 
L 168.935708 187.170328 
L 169.488254 187.170328 
L 170.0408 187.170328 
L 170.593346 187.170328 
L 171.145892 187.170328 
L 171.698438 187.170328 
L 172.250984 187.170328 
L 172.80353 187.170328 
L 173.356076 187.170328 
L 173.908622 187.170328 
L 174.461169 187.170328 
L 175.013715 187.170328 
L 175.566261 187.170328 
L 176.118807 187.170328 
L 176.671353 187.170328 
L 177.223899 187.170328 
L 177.776445 187.170328 
L 178.328991 187.170328 
L 178.881537 187.170328 
L 179.434083 187.170328 
L 179.986629 187.170328 
L 180.539176 187.170328 
L 181.091722 187.170328 
L 181.644268 187.170328 
L 182.196814 187.170328 
L 182.74936 187.170328 
L 183.301906 187.170328 
L 183.854452 187.170328 
L 184.406998 187.170328 
L 184.959544 187.170328 
L 185.51209 187.170328 
L 186.064636 187.170328 
L 186.617182 187.170328 
L 187.169729 187.170328 
L 187.722275 187.170328 
L 188.274821 187.170328 
L 188.827367 187.170328 
L 189.379913 187.170328 
L 189.932459 187.170328 
L 190.485005 187.170328 
L 191.037551 187.170328 
L 191.590097 187.170328 
L 192.142643 187.170328 
L 192.695189 187.170328 
L 193.247735 187.170328 
L 193.800282 187.170328 
L 194.352828 187.170328 
L 194.905374 187.170328 
L 195.45792 187.170328 
L 196.010466 187.170328 
L 196.563012 187.170328 
L 197.115558 187.170328 
L 197.668104 187.170328 
L 198.22065 187.170328 
L 198.773196 187.170328 
L 199.325742 187.170328 
L 199.878289 187.170328 
L 200.430835 187.170328 
L 200.983381 187.170328 
L 201.535927 187.170328 
L 202.088473 187.170328 
L 202.641019 187.170328 
L 203.193565 187.170328 
L 203.746111 187.170328 
L 204.298657 187.170328 
L 204.851203 187.170328 
L 205.403749 187.170328 
L 205.956295 187.170328 
L 206.508842 187.170328 
L 207.061388 187.170328 
L 207.613934 187.170328 
L 208.16648 187.170328 
L 208.719026 187.170328 
L 209.271572 187.170328 
L 209.824118 187.170328 
L 210.376664 187.170328 
L 210.92921 187.170328 
L 211.481756 187.170328 
L 212.034302 187.170328 
L 212.586848 187.170328 
L 213.139395 187.170328 
L 213.691941 187.170328 
L 214.244487 187.170328 
L 214.797033 187.170328 
L 215.349579 187.170328 
L 215.902125 187.170328 
" style="fill:none;stroke:#808080;stroke-linecap:square;stroke-width:3;"/>
   </g>
   <g id="line2d_13">
    <path clip-path="url(#p88bfb76db0)" d="M 57.266144 93.402539 
L 60.001247 90.94008 
L 62.73635 90.658597 
L 65.471453 89.792552 
L 68.206556 90.414027 
L 70.941659 91.495035 
L 73.676763 91.452655 
L 76.411866 91.686131 
L 79.146969 90.922559 
L 81.882072 90.824752 
L 84.617175 91.576905 
L 87.352278 91.617196 
L 90.087381 92.230076 
L 92.822484 90.437255 
L 95.557587 89.247795 
L 98.292691 89.513151 
L 101.027794 88.379376 
L 103.762897 89.460964 
L 106.498 91.131622 
L 109.233103 91.367044 
L 111.968206 91.872848 
L 114.703309 93.498088 
L 117.438412 94.285094 
L 120.173516 94.924525 
L 122.908619 95.719166 
L 125.643722 94.715703 
L 128.378825 92.516942 
L 131.113928 92.610296 
L 133.849031 92.126692 
L 136.584134 90.982414 
L 139.319237 91.347708 
L 142.054341 92.297371 
L 144.789444 93.810392 
L 147.524547 95.534212 
L 150.25965 97.002478 
L 152.994753 97.926879 
L 155.729856 97.266972 
L 158.464959 95.59161 
L 161.200062 94.132601 
L 163.935166 94.397872 
L 166.670269 94.151612 
L 169.405372 94.860018 
L 172.140475 94.594232 
L 174.875578 90.471662 
L 177.610681 91.02267 
L 180.345784 91.50966 
L 183.080887 91.629451 
L 185.815991 91.858084 
L 188.551094 90.649723 
L 191.286197 91.480668 
L 194.0213 91.937856 
L 196.756403 92.538621 
L 199.491506 92.685058 
L 202.226609 91.643309 
L 204.961712 92.615437 
L 207.696816 94.106952 
L 210.431919 94.552677 
L 213.167022 95.243406 
L 215.902125 95.279357 
L 218.637228 94.63448 
L 221.372331 96.698206 
L 224.107434 95.316256 
L 226.842537 92.708955 
L 229.577641 91.72944 
L 232.312744 90.559774 
L 235.047847 91.110471 
L 237.78295 88.805729 
L 240.518053 89.225874 
L 243.253156 89.124141 
L 245.988259 89.07202 
L 248.723362 88.843526 
L 251.458466 88.890852 
L 254.193569 89.818167 
L 256.928672 88.697816 
L 259.663775 89.083778 
L 262.398878 90.336988 
L 265.133981 89.283113 
L 267.869084 88.154144 
L 270.604187 89.481381 
L 273.339291 88.128744 
L 276.074394 90.155763 
L 278.809497 91.12913 
L 281.5446 92.413065 
L 284.279703 91.953191 
L 287.014806 92.466892 
L 289.749909 94.308189 
L 292.485012 95.270902 
L 295.220116 94.408553 
L 297.955219 95.634234 
L 300.690322 95.039746 
L 303.425425 95.030964 
L 306.160528 95.441938 
L 308.895631 94.448944 
L 311.630734 96.013868 
L 314.365837 96.636673 
L 317.100941 96.703699 
L 319.836044 96.611104 
L 322.571147 97.555487 
L 325.30625 97.965818 
" style="fill:none;stroke:#ff0000;stroke-linecap:square;stroke-width:1.5;"/>
   </g>
   <g id="line2d_14">
    <path clip-path="url(#p88bfb76db0)" d="M 57.266144 103.691469 
L 60.001247 104.704015 
L 62.73635 106.057167 
L 65.471453 107.521072 
L 68.206556 109.007481 
L 70.941659 110.46695 
L 73.676763 111.866786 
L 76.411866 113.189328 
L 79.146969 114.429654 
L 81.882072 115.592101 
L 84.617175 116.69323 
L 87.352278 117.753821 
L 90.087381 118.800077 
L 92.822484 119.858956 
L 95.557587 120.959086 
L 98.292691 122.1258 
L 101.027794 123.378821 
L 103.762897 124.736535 
L 106.498 126.21191 
L 109.233103 127.81779 
L 111.968206 129.559711 
L 114.703309 131.446309 
L 117.438412 133.48505 
L 120.173516 135.681178 
L 122.908619 138.043423 
L 125.643722 140.581372 
L 128.378825 143.303688 
L 131.113928 146.214245 
L 133.849031 149.31459 
L 136.584134 152.567069 
L 139.319237 155.881482 
L 142.054341 159.074392 
L 144.789444 161.837989 
L 147.524547 163.701237 
L 150.25965 164.110752 
L 152.994753 162.525265 
L 155.729856 158.552314 
L 158.464959 152.144554 
L 161.200062 143.674586 
L 163.935166 133.732125 
L 166.670269 123.094389 
L 169.405372 112.404518 
L 172.140475 102.19064 
L 174.875578 92.851754 
L 177.610681 84.604502 
L 180.345784 77.611698 
L 183.080887 71.901365 
L 185.815991 67.390827 
L 188.551094 63.99832 
L 191.286197 61.562036 
L 194.0213 59.883137 
L 196.756403 58.793266 
L 199.491506 58.043365 
L 202.226609 57.377678 
L 204.961712 56.523057 
L 207.696816 55.241751 
L 210.431919 53.375744 
L 213.167022 50.925224 
L 215.902125 48.086734 
L 218.637228 45.226215 
L 221.372331 42.775952 
L 224.107434 41.119305 
L 226.842537 40.474965 
L 229.577641 40.817121 
L 232.312744 41.961724 
L 235.047847 43.611529 
L 237.78295 45.502193 
L 240.518053 47.439686 
L 243.253156 49.317069 
L 245.988259 51.069913 
L 248.723362 52.654 
L 251.458466 54.029315 
L 254.193569 55.177635 
L 256.928672 56.118488 
L 259.663775 56.899152 
L 262.398878 57.581552 
L 265.133981 58.228374 
L 267.869084 58.887337 
L 270.604187 59.596447 
L 273.339291 60.378414 
L 276.074394 61.244387 
L 278.809497 62.193706 
L 281.5446 63.214299 
L 284.279703 64.287952 
L 287.014806 65.391784 
L 289.749909 66.501779 
L 292.485012 67.593817 
L 295.220116 68.648706 
L 297.955219 69.649185 
L 300.690322 70.585595 
L 303.425425 71.451537 
L 306.160528 72.247544 
L 308.895631 72.973679 
L 311.630734 73.642143 
L 314.365837 74.25397 
L 317.100941 74.824155 
L 319.836044 75.361168 
L 322.571147 75.873243 
L 325.30625 76.37218 
" style="fill:none;stroke:#000000;stroke-dasharray:5.55,2.4;stroke-dashoffset:0;stroke-width:1.5;"/>
   </g>
   <g id="line2d_15">
    <path clip-path="url(#p88bfb76db0)" d="M 161.200063 187.170328 
L 161.752609 187.170328 
L 162.305155 187.170328 
L 162.857701 187.170328 
L 163.410247 187.170328 
L 163.962793 187.170328 
L 164.515339 187.170328 
L 165.067885 187.170328 
L 165.620431 187.170328 
L 166.172977 187.170328 
L 166.725523 187.170328 
L 167.278069 187.170328 
L 167.830616 187.170328 
L 168.383162 187.170328 
L 168.935708 187.170328 
L 169.488254 187.170328 
L 170.0408 187.170328 
L 170.593346 187.170328 
L 171.145892 187.170328 
L 171.698438 187.170328 
L 172.250984 187.170328 
L 172.80353 187.170328 
L 173.356076 187.170328 
L 173.908622 187.170328 
L 174.461169 187.170328 
L 175.013715 187.170328 
L 175.566261 187.170328 
L 176.118807 187.170328 
L 176.671353 187.170328 
L 177.223899 187.170328 
L 177.776445 187.170328 
L 178.328991 187.170328 
L 178.881537 187.170328 
L 179.434083 187.170328 
L 179.986629 187.170328 
L 180.539176 187.170328 
L 181.091722 187.170328 
L 181.644268 187.170328 
L 182.196814 187.170328 
L 182.74936 187.170328 
L 183.301906 187.170328 
L 183.854452 187.170328 
L 184.406998 187.170328 
L 184.959544 187.170328 
L 185.51209 187.170328 
L 186.064636 187.170328 
L 186.617182 187.170328 
L 187.169729 187.170328 
L 187.722275 187.170328 
L 188.274821 187.170328 
L 188.827367 187.170328 
L 189.379913 187.170328 
L 189.932459 187.170328 
L 190.485005 187.170328 
L 191.037551 187.170328 
L 191.590097 187.170328 
L 192.142643 187.170328 
L 192.695189 187.170328 
L 193.247735 187.170328 
L 193.800282 187.170328 
L 194.352828 187.170328 
L 194.905374 187.170328 
L 195.45792 187.170328 
L 196.010466 187.170328 
L 196.563012 187.170328 
L 197.115558 187.170328 
L 197.668104 187.170328 
L 198.22065 187.170328 
L 198.773196 187.170328 
L 199.325742 187.170328 
L 199.878289 187.170328 
L 200.430835 187.170328 
L 200.983381 187.170328 
L 201.535927 187.170328 
L 202.088473 187.170328 
L 202.641019 187.170328 
L 203.193565 187.170328 
L 203.746111 187.170328 
L 204.298657 187.170328 
L 204.851203 187.170328 
L 205.403749 187.170328 
L 205.956295 187.170328 
L 206.508842 187.170328 
L 207.061388 187.170328 
L 207.613934 187.170328 
L 208.16648 187.170328 
L 208.719026 187.170328 
L 209.271572 187.170328 
L 209.824118 187.170328 
L 210.376664 187.170328 
L 210.92921 187.170328 
L 211.481756 187.170328 
L 212.034302 187.170328 
L 212.586848 187.170328 
L 213.139395 187.170328 
L 213.691941 187.170328 
L 214.244487 187.170328 
L 214.797033 187.170328 
L 215.349579 187.170328 
L 215.902125 187.170328 
" style="fill:none;stroke:#808080;stroke-linecap:square;stroke-width:3;"/>
   </g>
   <g id="line2d_16">
    <path clip-path="url(#p88bfb76db0)" d="M 57.266144 90.724152 
L 60.001247 90.384502 
L 62.73635 91.519819 
L 65.471453 91.644946 
L 68.206556 92.681771 
L 70.941659 92.176356 
L 73.676763 92.143602 
L 76.411866 91.591244 
L 79.146969 91.245789 
L 81.882072 91.720984 
L 84.617175 92.289529 
L 87.352278 92.538994 
L 90.087381 92.625367 
L 92.822484 92.720486 
L 95.557587 92.321638 
L 98.292691 91.914543 
L 101.027794 91.639187 
L 103.762897 91.053917 
L 106.498 91.091423 
L 109.233103 91.224143 
L 111.968206 91.179668 
L 114.703309 91.526991 
L 117.438412 92.636474 
L 120.173516 93.176289 
L 122.908619 93.338336 
L 125.643722 92.945039 
L 128.378825 92.595136 
L 131.113928 92.416866 
L 133.849031 92.439051 
L 136.584134 92.493957 
L 139.319237 92.489568 
L 142.054341 92.787415 
L 144.789444 93.442047 
L 147.524547 94.580536 
L 150.25965 95.209615 
L 152.994753 94.340693 
L 155.729856 94.523512 
L 158.464959 92.549726 
L 161.200062 90.720104 
L 163.935166 92.233819 
L 166.670269 94.420305 
L 169.405372 93.382485 
L 172.140475 93.101624 
L 174.875578 91.653479 
L 177.610681 90.889762 
L 180.345784 90.893881 
L 183.080887 91.099312 
L 185.815991 91.366309 
L 188.551094 92.549795 
L 191.286197 92.959556 
L 194.0213 93.245869 
L 196.756403 92.690123 
L 199.491506 91.886538 
L 202.226609 90.653515 
L 204.961712 90.876095 
L 207.696816 91.248086 
L 210.431919 90.661608 
L 213.167022 90.512597 
L 215.902125 90.030614 
L 218.637228 89.454678 
L 221.372331 90.980577 
L 224.107434 88.852321 
L 226.842537 89.46674 
L 229.577641 89.860386 
L 232.312744 90.56629 
L 235.047847 90.728181 
L 237.78295 91.035313 
L 240.518053 91.935442 
L 243.253156 92.335531 
L 245.988259 92.671503 
L 248.723362 92.579211 
L 251.458466 92.345318 
L 254.193569 91.592655 
L 256.928672 90.788152 
L 259.663775 90.701509 
L 262.398878 90.755897 
L 265.133981 92.573866 
L 267.869084 93.549392 
L 270.604187 93.261711 
L 273.339291 93.359729 
L 276.074394 92.354716 
L 278.809497 91.594641 
L 281.5446 91.152875 
L 284.279703 91.428194 
L 287.014806 91.674018 
L 289.749909 92.29016 
L 292.485012 92.188763 
L 295.220116 92.030509 
L 297.955219 92.101463 
L 300.690322 92.229338 
L 303.425425 92.697369 
L 306.160528 92.683573 
L 308.895631 92.648277 
L 311.630734 92.622391 
L 314.365837 92.667271 
L 317.100941 91.944671 
L 319.836044 91.968893 
L 322.571147 91.206996 
L 325.30625 91.195588 
" style="fill:none;stroke:#0000ff;stroke-linecap:square;stroke-width:1.5;"/>
   </g>
   <g id="patch_3">
    <path d="M 51.795938 195.450625 
L 51.795938 10.8 
" style="fill:none;stroke:#000000;stroke-linecap:square;stroke-linejoin:miter;stroke-width:0.8;"/>
   </g>
   <g id="patch_4">
    <path d="M 325.30625 195.450625 
L 325.30625 10.8 
" style="fill:none;stroke:#000000;stroke-linecap:square;stroke-linejoin:miter;stroke-width:0.8;"/>
   </g>
   <g id="patch_5">
    <path d="M 51.795938 195.450625 
L 325.30625 195.450625 
" style="fill:none;stroke:#000000;stroke-linecap:square;stroke-linejoin:miter;stroke-width:0.8;"/>
   </g>
   <g id="patch_6">
    <path d="M 51.795938 10.8 
L 325.30625 10.8 
" style="fill:none;stroke:#000000;stroke-linecap:square;stroke-linejoin:miter;stroke-width:0.8;"/>
   </g>
  </g>
 </g>
 <defs>
  <clipPath id="p88bfb76db0">
   <rect height="184.650625" width="273.510313" x="51.795938" y="10.8"/>
  </clipPath>
 </defs>
</svg>
